<svg xmlns="http://www.w3.org/2000/svg" xmlns:xlink="http://www.w3.org/1999/xlink" data-name="Layer 1" viewBox="0 0 16 16"><defs><radialGradient id="h" cx="-94.188" cy="-3.938" r=".5" gradientTransform="matrix(16 0 0 -16 1515 -55)" gradientUnits="userSpaceOnUse"><stop offset="0" stop-color="#f28a2d" stop-opacity="0"/><stop offset="1" stop-color="#f08423" stop-opacity=".34"/></radialGradient><radialGradient id="a" cx="-94.135" cy="-1.057" r=".101" gradientTransform="matrix(14.5998 6.5456 5.063 -11.2928 1381.427 612.553)" gradientUnits="userSpaceOnUse"><stop offset="0" stop-color="#f28a2d" stop-opacity=".5"/><stop offset="1" stop-color="#f28a2d" stop-opacity="0"/></radialGradient><radialGradient id="i" cx="-96.809" cy="-17.738" r=".283" gradientTransform="matrix(12.5663 -9.904 -3.6032 -4.5717 1164.49 -1028.117)" xlink:href="#a"/><radialGradient id="j" cx="-94.91" cy="-18.891" r=".107" gradientTransform="matrix(15.7394 -2.8762 -.572 -3.1299 1488.119 -330.079)" gradientUnits="userSpaceOnUse"><stop offset="0" stop-color="#d45f00" stop-opacity=".15"/><stop offset="1" stop-color="#f28a2d" stop-opacity="0"/></radialGradient><radialGradient id="k" cx="-93.647" cy="-6.796" r=".106" gradientTransform="matrix(15.6768 3.1995 .6363 -3.1176 1483.297 280.584)" gradientUnits="userSpaceOnUse"><stop offset="0" stop-color="#d45f00" stop-opacity=".15"/><stop offset="1" stop-color="#d45f00" stop-opacity="0"/></radialGradient><radialGradient id="c" cx="-118.78" cy="-49.027" r=".872" gradientTransform="matrix(0 -2.1326 -2.1327 0 -99.567 -249.04)" gradientUnits="userSpaceOnUse"><stop offset="0" stop-color="#3b446b"/><stop offset=".688" stop-color="#202340"/></radialGradient><radialGradient id="p" cx="-118.795" cy="-49.027" r=".872" gradientTransform="matrix(0 -2.1326 -2.1327 0 -93.554 -249.072)" xlink:href="#c"/><radialGradient id="d" cx="-146.771" cy="-15.395" r=".298" gradientTransform="matrix(-.339 -1.3177 -6.1081 1.5713 -138.789 -167.499)" gradientUnits="userSpaceOnUse"><stop offset="0" stop-color="#e38200"/><stop offset="1" stop-color="#cd6700"/></radialGradient><radialGradient id="q" cx="-114.585" cy="-14.496" r=".314" gradientTransform="matrix(.2577 -1.3359 -7.9278 -1.5293 -74.455 -173.71)" xlink:href="#d"/><radialGradient id="r" cx="15.654" cy="21.737" r="8.846" gradientTransform="translate(0 -14)" xlink:href="#b"/><radialGradient id="u" cx="-81.73" cy="4.263" r="1.226" gradientTransform="matrix(4.3582 3.2271 3.227 -4.3582 342.36 289.8)" xlink:href="#b"/><linearGradient id="g" x1="-94.188" x2="-94.188" y1="-4.388" y2="-3.512" gradientTransform="matrix(16 0 0 -16 1515 -55)" gradientUnits="userSpaceOnUse"><stop offset="0" stop-color="#f28a2d"/><stop offset="1" stop-color="#fde86f"/></linearGradient><linearGradient id="b" x1="7.683" x2="11.127" y1="12.65" y2="12.65" gradientUnits="userSpaceOnUse"><stop offset="0" stop-color="#eda83a"/><stop offset="1" stop-color="#ffdc5e"/></linearGradient><linearGradient id="l" x1="9.03" x2="5.354" y1="17.442" y2="9.197" xlink:href="#b"/><linearGradient id="m" x1="9.206" x2="4.452" y1="2.304" y2="20.607" gradientUnits="userSpaceOnUse"><stop offset="0" stop-color="#eda83a"/><stop offset="1" stop-color="#ff8737"/></linearGradient><linearGradient id="n" x1="8.342" x2="6.533" y1="12.338" y2="7.113" gradientUnits="userSpaceOnUse"><stop offset="0" stop-color="#eed187"/><stop offset="1" stop-color="#f7ead7"/></linearGradient><linearGradient id="o" x1="-70.825" x2="-70.825" y1="-42.204" y2="-43.723" gradientTransform="matrix(3.4035 0 0 -.9374 249.053 -34.253)" gradientUnits="userSpaceOnUse"><stop offset="0" stop-color="#482314"/><stop offset="1" stop-color="#9a4111"/></linearGradient><linearGradient id="e" x1="-1.326" x2="12.914" y1="12.567" y2="11.552" gradientUnits="userSpaceOnUse"><stop offset="0" stop-color="#9c0600"/><stop offset="1" stop-color="#9c0600" stop-opacity="0"/></linearGradient><linearGradient id="t" x1="8.295" x2="1.89" y1="10.924" y2="10.234" xlink:href="#e"/><clipPath id="f"><rect width="16" height="16" fill="none"/></clipPath><clipPath id="s"><circle cx="8" cy="8" r="8" fill="none"/></clipPath></defs><g clip-path="url(#f)"><path fill="url(#g)" fill-rule="evenodd" d="M16,8A8,8,0,1,1,8,0,8.02352,8.02352,0,0,1,16,8Z"/><path fill="url(#h)" fill-rule="evenodd" d="M16,8A8,8,0,1,1,8,0,8.02352,8.02352,0,0,1,16,8Z" data-name="b"/><path fill="url(#a)" fill-rule="evenodd" d="M16,8A8,8,0,1,1,8,0,8.02352,8.02352,0,0,1,16,8Z" data-name="b"/><path fill="url(#i)" fill-rule="evenodd" d="M16,8A8,8,0,1,1,8,0,8.02352,8.02352,0,0,1,16,8Z" data-name="b"/><path fill="url(#j)" fill-rule="evenodd" d="M16,8A8,8,0,1,1,8,0,8.02352,8.02352,0,0,1,16,8Z" data-name="b"/><path fill="url(#k)" fill-rule="evenodd" d="M16,8A8,8,0,1,1,8,0,8.02352,8.02352,0,0,1,16,8Z" data-name="b"/><path fill="url(#b)" d="M9.579,14.997l-1.03942-.15848a1.00981,1.00981,0,0,1-.84511-1.14918l.3875-2.54155a1.00983,1.00983,0,0,1,1.14919-.84512l1.03942.15848a1.00981,1.00981,0,0,1,.84511,1.14919l-.3875,2.54154A1.00984,1.00984,0,0,1,9.579,14.997Zm-.46033-3.95658a.26267.26267,0,0,0-.29893.21984L8.4322,13.80181a.26269.26269,0,0,0,.21984.29894l1.03942.15848a.2627.2627,0,0,0,.29894-.21984l.3875-2.54155a.26267.26267,0,0,0-.21984-.29893l-1.03942-.15848Z" data-name="Layer 2"/><path fill="url(#l)" d="M9.68933,9.87858l-.96662,4.99164-.1563.90963c-.03794.24883-1.13032.28869-2.43989.089s-2.34044-.56326-2.3025-.81209l.12532-.93827.0014.00021L4.513,9.08935a.64672.64672,0,0,1,.74022-.5675l3.8987.59443A.64672.64672,0,0,1,9.68933,9.87858Z" data-name="Layer 3"/><path fill="url(#m)" d="M4.95621,14.80941a.2626.2626,0,0,1-.22124-.28836L5.21526,10.17a.26258.26258,0,1,1,.522.0576L5.257,14.57865a.26259.26259,0,0,1-.2898.2322Zm2.9025.18791.8382-4.29652a.26259.26259,0,0,0-.51545-.10058l-.8382,4.29653a.26259.26259,0,0,0,.20744.308l.01089.00189A.26259.26259,0,0,0,7.85871,14.99732Zm-1.26762-.20426.67282-4.41288a.26258.26258,0,1,0-.51916-.07915l-.67282,4.41288a.26258.26258,0,1,0,.51916.07915Z" data-name="Layer 4"/><path fill="url(#n)" d="M10.35606,9.68712a.73881.73881,0,0,1-1.4119.17383,1.10714,1.10714,0,0,1-1.27507-.28684q-.02794.00633-.05628.01141c-.00206.02277-.00458.0456-.00807.06853a1.108,1.108,0,0,1-2.201-.09348,1.108,1.108,0,1,1-.07956-2.17565.73881.73881,0,0,1,1.4119-.17383,1.28486,1.28486,0,0,1,1.795.52611,1.10609,1.10609,0,0,1,1.08,1.1.73818.73818,0,0,1,.745.84988Z" data-name="Layer 5"/><path fill="url(#o)" fill-rule="evenodd" d="M9.7,5.9c-.1-.3-3.3-.3-3.4,0s.6.7,1.7.7S9.8,6.2,9.7,5.9Z"/><path fill="url(#c)" fill-rule="evenodd" d="M6,4.1c0,.7-.4.9-1,1s-1.1-.2-1.1-1c0-.6.3-1.4,1.1-1.4C5.7,2.7,6,3.5,6,4.1Z"/><path fill="#4e506a" fill-rule="evenodd" d="M4.9,3.1a.34826.34826,0,0,1-.1.5c-.1.1-.3.2-.4,0a.45417.45417,0,0,1,0-.5.44637.44637,0,0,1,.5,0Z"/><path fill="url(#p)" fill-rule="evenodd" d="M10,4.1c0,.7.4.9,1.1,1,.6.1,1.1-.2,1.1-1,0-.6-.3-1.4-1.1-1.4S10,3.5,10,4.1Z"/><path fill="#4e506a" fill-rule="evenodd" d="M11,3.1c.1.1,0,.3-.1.5a.30417.30417,0,0,1-.4,0c-.1-.1,0-.3.1-.5C10.8,2.9,10.9,2.9,11,3.1Z"/><path fill="url(#d)" fill-rule="evenodd" d="M3.4,2.1c-.2.2,0,.5.3.4A5.85669,5.85669,0,0,1,6.5,2c.3,0,.4,0,.3-.4,0-.3-.4-.5-1.2-.4A3.78644,3.78644,0,0,0,3.4,2.1Z"/><path fill="url(#q)" fill-rule="evenodd" d="M10.4,1.2c-.8-.1-1.2.1-1.2.4-.1.4,0,.4.3.4a5.39694,5.39694,0,0,1,2.8.5c.4.2.5-.2.3-.4A3.78644,3.78644,0,0,0,10.4,1.2Z"/><path fill="url(#e)" d="M15.13789,8.26713c-.11608-.09583-.16921-.062-.3612-.1548-.30835-.14911-.35542.67451-.47669.68767-.17312.01879-.24414-.60673-.32245-.352a3.22671,3.22671,0,0,1-1.0043,1.44331,3.80684,3.80684,0,0,1-1.93207.88144,13.13383,13.13383,0,0,1-1.76673-.09346.463.463,0,0,0-.28693.11919.39881.39881,0,0,0-.10079.18265c-.06223.22482.18157.4657.36713.649A1.88447,1.88447,0,0,0,9.6,11.9c.14121.05492.27912.12324.27176.18346-.02033.16628-1.17117-.12915-1.72285.44688a1.295,1.295,0,0,0-.28284,1.01094,1.85351,1.85351,0,0,0,1.1253,1.31607,2.754,2.754,0,0,0,1.51742.19512A7.27361,7.27361,0,0,0,13.637,13.6617c.79466-.59482,1.192-2.89222,1.45734-3.46719.33929-.73521.36328.33148.32731-.09557a3.40011,3.40011,0,0,1-.05159-.92881,1.18506,1.18506,0,0,0,0-.4902A.74547.74547,0,0,0,15.13789,8.26713Z"/><path fill="url(#r)" d="M14.3,7.8c.3-.6.8-.4,1.1-.3a.91613.91613,0,0,1,.7,1,5.70617,5.70617,0,0,1-1.5,4.3c-2.3,2.6-6.2,2.2-6.6.6C7.7,12.2,9.1,12,9.6,12v-.1c-.2-.1-.3-.2-.5-.3-.4-.3-.3-.9.2-.8a6.80386,6.80386,0,0,0,2,.2c1.9-.2,2.2-1.7,3-3.2Z"/><g clip-path="url(#s)"><path fill="url(#t)" d="M6.31933,10.25326a.82184.82184,0,0,0-.458-.17463c-.72793-.086-1.48341-.12807-1.76-.14228a1.24221,1.24221,0,0,0,.99713-.28009c.04012-.03877.42538-.42025.27383-.72006a.56611.56611,0,0,0-.42793-.24331c-.05378.01316-.133.03111-.22957.04756A3.71631,3.71631,0,0,1,2.8877,8.56517a4.77,4.77,0,0,1-.93585-.46256A3.27059,3.27059,0,0,0,1.3,7.7a1.17553,1.17553,0,0,0-.80158-.10293C.002,7.81606.08161,8.953.097,9.17277a4.17965,4.17965,0,0,0,1.71086,3.16648,3.55484,3.55484,0,0,0,2.93911.49967c1.00354-.33042,1.81425-1.16375,1.76377-1.85945C6.50405,10.88719,6.56845,10.46525,6.31933,10.25326Z"/><path fill="url(#u)" fill-rule="evenodd" d="M1.3,7.7c-.5-.5-1.4-.8-1.5.4a4.23772,4.23772,0,0,0,1.4,3.4c2.8,2.2,5.3,1,5.4-.6.1-1.2-1.4-1.1-1.8-1.1V9.7c.1-.1.3-.2.4-.3.4-.3.2-.8-.3-.7a4.23105,4.23105,0,0,1-2.1.1C2,8.5,1.9,8.2,1.3,7.7Z"/></g></g></svg>